<?xml version="1.0" encoding="UTF-8" standalone="no"?>
<!DOCTYPE svg PUBLIC "-//W3C//DTD SVG 1.1//EN" "http://www.w3.org/Graphics/SVG/1.1/DTD/svg11.dtd">
<svg width="100%" height="100%" viewBox="0 0 150 64" version="1.1" xmlns="http://www.w3.org/2000/svg" xmlns:xlink="http://www.w3.org/1999/xlink" xml:space="preserve" xmlns:serif="http://www.serif.com/" style="fill-rule:evenodd;clip-rule:evenodd;stroke-linejoin:round;stroke-miterlimit:2;">
    <g transform="matrix(1,0,0,1,-10.006,-10.0195)">
        <g transform="matrix(1.21724,0,0,1.21724,-21.5124,-9.83815)">
            <g>
                <g>
                    <path d="M64.568,66.247C48.756,66.247 37.35,62.187 30.207,59.647L28.508,59.043C27.757,58.779 27.388,58.032 27.686,57.371C27.985,56.706 28.833,56.382 29.584,56.649L31.305,57.255C41.284,60.807 65.716,67.416 93.245,60.888C125.47,53.255 140.01,56.12 145.486,57.187C146.281,57.339 146.772,58.024 146.605,58.721C146.429,59.416 145.649,59.855 144.863,59.701C139.543,58.676 119.747,55.889 88.153,63.379C79.42,65.453 71.563,66.247 64.568,66.247Z" style="fill:rgb(0,147,190);fill-rule:nonzero;"/>
                </g>
            </g>
        </g>
        <g transform="matrix(1.21724,0,0,1.21724,-21.5124,-9.83815)">
            <path d="M45.01,32.688L42.585,32.688L41.678,29.222C41.461,28.414 41.225,27.45 41.107,26.78C41.029,26.307 41.008,26.17 40.95,25.776C40.89,26.21 40.871,26.347 40.714,27.076C40.516,27.942 40.082,29.676 39.846,30.62L39.333,32.688L36.869,32.688L34.108,22.783L36.73,22.488L37.559,26.367C37.815,27.529 38.13,29.498 38.13,29.498C38.13,29.498 38.386,27.706 38.859,25.993L39.806,22.606L42.29,22.606L43.098,25.933C43.552,27.804 43.848,29.497 43.848,29.497C43.907,29.064 44.123,27.488 44.399,26.209L45.169,22.605L47.89,22.605L45.01,32.688Z" style="fill:rgb(0,147,188);fill-rule:nonzero;"/>
            <path d="M51.63,28.472L51.63,28.553C51.63,30.109 52.399,30.994 53.759,30.994C54.666,30.994 55.514,30.659 56.322,29.99L57.346,31.565C56.184,32.509 54.96,32.963 53.542,32.963C50.643,32.963 48.77,30.915 48.77,27.745C48.77,25.933 49.145,24.732 50.032,23.747C50.861,22.822 51.866,22.389 53.206,22.389C54.37,22.389 55.475,22.783 56.125,23.453C57.052,24.396 57.466,25.756 57.466,27.863L57.466,28.472L51.63,28.472ZM54.726,26.427C54.726,25.679 54.647,25.284 54.411,24.91C54.154,24.516 53.779,24.319 53.247,24.319C52.242,24.319 51.67,25.107 51.67,26.505L51.67,26.545L54.727,26.545L54.727,26.427L54.726,26.427Z" style="fill:rgb(0,147,188);fill-rule:nonzero;"/>
            <path d="M64.562,24.91C64.305,24.772 64.089,24.713 63.793,24.713C63.201,24.713 62.669,24.989 62.176,25.56L62.176,32.689L59.534,32.689L59.534,25.955C59.534,24.597 59.376,23.572 59.159,23.001L61.525,22.37C61.761,22.784 61.899,23.237 61.939,23.808C62.51,23.04 63.319,22.37 64.304,22.37C64.7,22.37 64.876,22.41 65.29,22.588L64.562,24.91Z" style="fill:rgb(0,147,188);fill-rule:nonzero;"/>
            <path d="M66.57,32.689L66.57,21.326C66.57,20.44 66.549,19.751 66.392,18.707L69.053,18.058C69.172,18.806 69.211,19.988 69.211,21.327L69.211,32.689L66.57,32.689ZM72.662,32.688L69.27,26.977L71.853,22.606L75.028,22.606L71.814,26.82L75.777,32.688L72.662,32.688Z" style="fill:rgb(0,147,188);fill-rule:nonzero;"/>
            <path d="M78.831,28.472L78.831,28.553C78.831,30.109 79.6,30.994 80.96,30.994C81.867,30.994 82.715,30.659 83.523,29.99L84.547,31.565C83.384,32.509 82.161,32.963 80.742,32.963C77.844,32.963 75.971,30.915 75.971,27.745C75.971,25.933 76.346,24.732 77.233,23.747C78.061,22.822 79.066,22.389 80.407,22.389C81.571,22.389 82.675,22.783 83.326,23.453C84.253,24.396 84.666,25.756 84.666,27.863L84.666,28.472L78.831,28.472ZM81.927,26.427C81.927,25.679 81.848,25.284 81.611,24.91C81.355,24.516 80.98,24.319 80.448,24.319C79.443,24.319 78.871,25.107 78.871,26.505L78.871,26.545L81.928,26.545L81.928,26.427L81.927,26.427Z" style="fill:rgb(0,147,188);fill-rule:nonzero;"/>
            <path d="M42.525,51.764C41.856,51.547 41.363,51.016 41.185,50.326C40.239,51.271 39.469,51.644 38.346,51.644C35.92,51.644 35.191,50.168 35.191,48.849C35.191,46.624 37.104,45.325 40.396,45.325C40.81,45.325 41.086,45.344 41.086,45.344L41.086,44.656C41.086,43.79 41.046,43.434 40.771,43.12C40.456,42.766 40.061,42.589 39.45,42.589C38.346,42.589 36.946,43.18 36.315,43.751L35.546,42.648C36.847,41.781 38.247,41.329 39.666,41.329C41.027,41.329 41.974,41.86 42.388,42.866C42.604,43.395 42.624,44.144 42.604,45.03L42.525,48.26C42.486,49.854 42.585,50.267 43.315,50.66L42.525,51.764ZM40.278,46.368C37.794,46.368 36.907,47.215 36.907,48.712C36.907,49.873 37.478,50.504 38.602,50.504C39.608,50.504 40.535,49.893 40.988,48.967L41.047,46.407C40.792,46.388 40.555,46.368 40.278,46.368Z" style="fill:rgb(0,147,188);fill-rule:nonzero;"/>
            <path d="M56.996,51.389L56.996,44.144C56.996,43.199 56.561,42.706 55.734,42.706C54.846,42.706 54.156,43.277 53.131,44.223L53.131,51.389L51.573,51.389L51.573,44.418C51.573,43.829 51.513,43.434 51.297,43.157C51.061,42.884 50.745,42.765 50.291,42.765C49.542,42.765 48.813,43.138 47.788,44.064L47.788,51.388L46.309,51.388L46.309,43.788C46.309,42.37 45.954,41.701 45.954,41.701L47.453,41.347C47.453,41.347 47.807,42.115 47.807,42.804C48.457,42.075 49.661,41.327 50.665,41.327C51.631,41.327 52.598,41.918 52.952,42.962C53.898,41.957 55.101,41.327 56.106,41.327C57.565,41.327 58.571,42.43 58.571,43.984L58.571,51.387L56.996,51.387L56.996,51.389Z" style="fill:rgb(0,147,188);fill-rule:nonzero;"/>
            <path d="M72.408,51.389L65.862,51.389L65.862,50.208L71.206,42.805L66.277,42.805L66.277,41.584L72.822,41.584L72.822,42.845L67.716,50.208L73.138,50.208L72.408,51.389Z" style="fill:rgb(0,147,188);fill-rule:nonzero;"/>
            <path d="M82.816,51.803C82.166,51.272 81.889,50.877 81.751,50.228C81.002,51.233 79.978,51.724 78.637,51.724C77.394,51.724 76.468,51.193 76.053,50.327C75.876,49.953 75.797,49.441 75.797,48.87L75.797,41.663L77.316,41.368L77.316,48.417C77.316,49.343 77.455,49.757 77.908,50.071C78.223,50.288 78.677,50.406 79.111,50.406C80.076,50.406 81.082,49.697 81.614,48.633L81.614,41.683L83.132,41.427L83.132,48.575C83.132,49.815 83.311,50.307 83.803,50.761L82.816,51.803ZM77.434,40.206C76.862,40.206 76.409,39.732 76.409,39.162C76.409,38.61 76.862,38.157 77.415,38.157C77.987,38.157 78.44,38.61 78.44,39.162C78.439,39.732 78.005,40.206 77.434,40.206ZM81.516,40.206C80.944,40.206 80.47,39.732 80.47,39.162C80.47,38.61 80.924,38.157 81.495,38.157C82.048,38.157 82.52,38.61 82.52,39.162C82.521,39.732 82.066,40.206 81.516,40.206Z" style="fill:rgb(0,147,188);fill-rule:nonzero;"/>
            <path d="M91.055,43.061C90.957,43.021 90.78,42.982 90.622,42.982C90.03,42.982 89.439,43.237 88.985,43.691C88.532,44.144 88.412,44.44 88.412,45.247L88.412,51.39L86.875,51.39L86.875,43.83C86.875,42.392 86.54,41.742 86.54,41.742L88.078,41.329C88.078,41.329 88.452,42.097 88.393,42.923C89.103,41.92 90.148,41.29 91.154,41.29C91.411,41.29 91.686,41.389 91.686,41.389L91.055,43.061Z" style="fill:rgb(0,147,188);fill-rule:nonzero;"/>
            <path d="M94.091,39.753C93.421,39.753 92.889,39.221 92.889,38.571C92.889,37.901 93.421,37.35 94.091,37.35C94.761,37.35 95.293,37.881 95.293,38.55C95.293,39.221 94.761,39.753 94.091,39.753ZM93.263,51.389L93.263,41.623L94.861,41.367L94.861,51.388L93.263,51.388L93.263,51.389Z" style="fill:rgb(0,147,188);fill-rule:nonzero;"/>
            <path d="M102.094,51.605C100.695,51.605 99.65,51.113 98.96,50.128C98.309,49.183 98.014,48.1 98.014,46.643C98.014,44.497 98.645,43.315 99.493,42.469C100.262,41.701 101.109,41.327 102.155,41.327C103.395,41.327 104.126,41.799 104.836,42.39L103.988,43.452C103.298,42.882 102.863,42.664 102.115,42.664C101.345,42.664 100.616,43.099 100.261,43.767C99.886,44.457 99.709,45.539 99.709,46.976C99.709,49.182 100.558,50.384 102.134,50.384C102.923,50.384 103.672,50.009 104.243,49.321L105.091,50.305C104.185,51.232 103.316,51.605 102.094,51.605Z" style="fill:rgb(0,147,188);fill-rule:nonzero;"/>
            <path d="M113.268,51.389L113.268,44.617C113.268,43.888 113.168,43.434 112.894,43.158C112.658,42.923 112.244,42.766 111.75,42.766C110.803,42.766 109.738,43.376 108.89,44.418L108.89,51.389L107.354,51.389L107.354,39.3C107.354,38.02 107.096,37.291 107.096,37.291L108.635,36.996C108.635,36.996 108.89,37.823 108.89,39.319L108.89,41.603C108.89,42.233 108.832,42.941 108.832,42.941C109.719,42.115 110.842,41.387 112.103,41.387C113.286,41.387 114.351,42.036 114.627,42.941C114.745,43.336 114.785,43.651 114.785,44.36L114.785,51.388L113.268,51.388L113.268,51.389Z" style="fill:rgb(0,147,188);fill-rule:nonzero;"/>
            <path d="M121.349,51.685C120.107,51.685 118.746,51.311 117.741,50.701L118.333,49.559C119.338,50.169 120.364,50.485 121.447,50.485C122.651,50.485 123.439,49.834 123.439,48.792C123.439,47.904 122.946,47.413 121.822,47.176L120.599,46.92C118.983,46.586 118.115,45.581 118.115,44.224C118.115,42.452 119.554,41.21 121.605,41.21C122.629,41.21 123.774,41.525 124.602,41.998L124.031,43.14C123.162,42.727 122.434,42.432 121.565,42.432C120.443,42.432 119.713,43.081 119.713,44.046C119.713,44.794 120.086,45.247 121.132,45.463L122.434,45.739C124.207,46.112 125.055,47.018 125.055,48.475C125.055,50.386 123.557,51.685 121.349,51.685Z" style="fill:rgb(0,147,188);fill-rule:nonzero;"/>
            <path d="M129.193,46.742L129.193,46.977C129.193,47.903 129.311,48.613 129.646,49.123C130.199,49.971 131.106,50.325 132.091,50.325C133.037,50.325 133.807,50.029 134.496,49.399L135.088,50.384C134.22,51.171 133.037,51.604 131.775,51.604C129.055,51.604 127.419,49.636 127.419,46.386C127.419,44.732 127.774,43.669 128.603,42.685C129.391,41.76 130.357,41.327 131.54,41.327C132.604,41.327 133.532,41.701 134.202,42.39C135.051,43.255 135.326,44.18 135.326,46.524L135.326,46.742L129.193,46.742ZM133.235,43.395C132.9,42.866 132.211,42.53 131.46,42.53C130.061,42.53 129.272,43.553 129.193,45.581L133.688,45.581C133.669,44.518 133.531,43.867 133.235,43.395Z" style="fill:rgb(0,147,188);fill-rule:nonzero;"/>
            <path d="M139.464,46.742L139.464,46.977C139.464,47.903 139.582,48.613 139.917,49.123C140.468,49.971 141.376,50.325 142.361,50.325C143.307,50.325 144.076,50.029 144.767,49.399L145.357,50.384C144.49,51.171 143.307,51.604 142.045,51.604C139.323,51.604 137.688,49.636 137.688,46.386C137.688,44.732 138.043,43.669 138.871,42.685C139.66,41.76 140.627,41.327 141.809,41.327C142.873,41.327 143.8,41.701 144.471,42.39C145.319,43.255 145.593,44.18 145.593,46.524L145.593,46.742L139.464,46.742ZM143.505,43.395C143.171,42.866 142.48,42.53 141.731,42.53C140.332,42.53 139.543,43.553 139.464,45.581L143.958,45.581C143.939,44.518 143.801,43.867 143.505,43.395Z" style="fill:rgb(0,147,188);fill-rule:nonzero;"/>
        </g>
    </g>
</svg>
